<svg data-v-0dd9719b="" version="1.0" xmlns="http://www.w3.org/2000/svg" xmlns:xlink="http://www.w3.org/1999/xlink" width="100%" height="100%" viewBox="0 0 340.000000 100.000000" preserveAspectRatio="xMidYMid meet" color-interpolation-filters="sRGB" style="margin: auto;">
  <rect data-v-0dd9719b="" x="0" y="0" width="100%" height="100%" fill="#ffffff" fill-opacity="1" class="background"></rect>
  <rect data-v-0dd9719b="" x="0" y="0" width="100%" height="100%" fill="url(#watermark)" fill-opacity="1" class="watermarklayer"></rect>
  <g data-v-0dd9719b="" fill="#8c008f" class="basesvg" transform="translate(97.31000518798828,15.03999710083008)">
    <g data-gra="path-name" fill-rule="" class="tp-name">
      <g transform="scale(1)">
        <g>
          <path d="M31.56-10.86L31.56-10.86 35.82-10.92 35.82-8.46Q35.1-8.58 34.14-8.58 33.18-8.58 31.98-8.46L31.98-8.46Q31.98-3.84 27.54 0.9 23.1 5.64 16.83 8.61 10.56 11.58 5.16 11.58L5.16 11.58Q2.34 11.58 0.57 10.14-1.2 8.7-1.2 6.36L-1.2 6.36Q-1.2 2.88 3.42-0.9 8.04-4.68 14.22-7.14 20.4-9.6 25.38-10.02L25.38-10.02Q24.78-10.92 23.52-11.58 22.26-12.24 18.36-13.65 14.46-15.06 12.84-16.77 11.22-18.48 11.22-21.6 11.22-24.72 14.58-28.74 17.94-32.76 22.53-35.49 27.12-38.22 30.6-38.22L30.6-38.22Q32.16-38.22 33.18-37.11 34.2-36 34.2-34.38L34.2-34.38Q34.2-31.74 31.02-27.75 27.84-23.76 23.94-21.66L23.94-21.66 22.5-23.7Q24.84-24.9 26.61-27.45 28.38-30 28.38-31.86 28.38-33.72 26.4-33.72L26.4-33.72Q23.58-33.72 19.95-30.21 16.32-26.7 16.32-23.64L16.32-23.64Q16.32-21.54 17.4-20.34 18.48-19.14 22.86-17.37 27.24-15.6 29.1-14.25 30.96-12.9 31.56-10.86ZM4.8 4.8L4.8 4.8Q4.8 7.68 9.48 7.68L9.48 7.68Q12.06 7.68 16.17 5.79 20.28 3.9 23.43 0.51 26.58-2.88 26.58-6.42L26.58-6.42Q26.58-6.84 26.4-7.68L26.4-7.68Q18.18-6.9 11.49-3.06 4.8 0.78 4.8 4.8ZM56.82-1.86L61.68-3.78 61.86-2.22Q61.62-2.04 56.28-0.06L56.28-0.06Q55.56 3.9 54.45 7.77 53.34 11.64 52.23 13.65 51.12 15.66 49.62 17.64L49.62 17.64Q46.62 21.6 41.52 21.6L41.52 21.6Q39 21.6 37.5 20.04 36 18.48 36 15.78L36 15.78Q36 5.4 53.4-0.9L53.4-0.9 56.64-12.3Q51.48-4.56 47.34-2.76L47.34-2.76Q45.3-1.8 43.05-1.8 40.8-1.8 39.45-3.24 38.1-4.68 38.1-7.44 38.1-10.2 39.99-15.15 41.88-20.1 44.22-23.46L44.22-23.46 47.16-22.2Q46.98-22.02 45.48-19.02L45.48-19.02Q42.84-13.56 42.84-10.92 42.84-8.28 43.86-7.38 44.88-6.48 46.86-6.48 48.84-6.48 51.33-8.85 53.82-11.22 59.04-18.24L59.04-18.24 61.2-16.98Q60.72-15 59.07-9.81 57.42-4.62 56.82-1.86L56.82-1.86ZM53.04 0.9L53.04 0.9Q49.26 2.64 46.38 4.86L46.38 4.86Q40.98 8.94 40.98 12.78L40.98 12.78Q40.98 14.22 41.82 15.12 42.66 16.02 43.92 16.02L43.92 16.02Q49.92 16.02 53.04 0.9ZM73.44-5.76L73.44-5.76 74.7-4.74Q72.66-1.56 71.19-0.15 69.72 1.26 67.92 1.26 66.12 1.26 64.98-0.18 63.84-1.62 63.84-3.78L63.84-3.78Q63.84-7.98 69.36-21.87 74.88-35.76 80.7-46.32L80.7-46.32 83.34-44.88Q77.46-33.48 72.72-22.23 67.98-10.98 67.98-6.06L67.98-6.06Q67.98-3.24 70.08-3.24L70.08-3.24Q71.76-3.24 73.44-5.76ZM106.08-6.06L106.08-6.06 107.46-5.04Q106.62-3.24 104.37-1.62 102.12 0 100.26 0L100.26 0Q96.72 0 96.72-3.72L96.72-3.72Q96.72-5.46 97.62-7.86L97.62-7.86 95.4-5.58Q92.16-2.28 89.79-1.14 87.42 0 85.14 0 82.86 0 81.69-1.29 80.52-2.58 80.52-4.86L80.52-4.86Q80.52-9.06 83.76-13.17 87-17.28 92.04-19.86 97.08-22.44 102.12-22.5L102.12-22.5 102.24-20.52 99.72-19.98Q94.26-18.78 90.09-15.18 85.92-11.58 85.92-8.01 85.92-4.44 88.8-4.44L88.8-4.44Q91.5-4.44 95.46-8.22 99.42-12 102.06-17.1L102.06-17.1 104.58-15.6Q100.86-8.1 100.86-6.06L100.86-6.06Q100.86-5.22 101.43-4.65 102-4.08 102.57-4.08 103.14-4.08 103.32-4.14 103.5-4.2 103.68-4.29 103.86-4.38 104.13-4.56 104.4-4.74 104.61-4.92 104.82-5.1 105.3-5.46 105.78-5.82 106.08-6.06ZM120.72-25.44L120.72-25.44Q117.36-25.44 117.36-28.14L117.36-28.14Q117.36-29.64 118.2-30.66 119.04-31.68 120.36-31.68 121.68-31.68 122.52-30.9 123.36-30.12 123.36-28.86 123.36-27.6 122.64-26.52 121.92-25.44 120.72-25.44ZM119.94-7.74L119.94-7.74 121.14-6.72Q119.7-3.96 117.33-2.01 114.96-0.06 113.04-0.06L113.04-0.06Q109.68-0.06 109.68-4.74L109.68-4.74Q109.68-10.56 114.48-19.92L114.48-19.92Q115.56-21.96 115.74-22.32L115.74-22.32 118.32-20.76Q117.06-18.48 115.23-13.5 113.4-8.52 113.4-7.11 113.4-5.7 114-5.1 114.6-4.5 115.44-4.5L115.44-4.5Q117.06-4.5 119.94-7.74ZM144.18-23.46L144.18-23.46 143.64-21.12Q142.62-21.24 141-21.24L141-21.24Q135-21.24 135-17.28L135-17.28Q135-16.44 137.43-12.36 139.86-8.28 139.86-6.9L139.86-6.9Q139.86-3.66 137.67-1.83 135.48 0 131.82 0L131.82 0Q126.78 0 123.72-5.58L123.72-5.58 126-7.2Q126.84-6.54 127.8-5.61 128.76-4.68 129.24-4.32L129.24-4.32Q130.38-3.3 131.76-3.3 133.14-3.3 134.16-4.29 135.18-5.28 135.18-6.75 135.18-8.22 132.57-12.24 129.96-16.26 129.96-17.88L129.96-17.88Q129.96-20.82 132.45-22.38 134.94-23.94 138.99-23.94 143.04-23.94 144.18-23.46Z" transform="translate(1.2000000476837158, 46.31999969482422)"></path>
        </g> 
      </g>
    </g> 
  </g>
  <defs v-gra="od"></defs>
</svg>
